#N canvas 1125 452 660 690 10;
#X obj 59 648 tgl 15 0 empty empty connected 20 7 0 8 -24198 -241291
-1 1 1;
#X obj 255 156 tgl 15 0 empty empty empty 17 7 0 10 -262144 -1 -1 1
1;
#X obj 237 97 tgl 15 0 empty empty empty 17 7 0 10 -262144 -1 -1 1
1;
#X obj 212 32 hsl 128 15 0 1 0 0 empty empty empty -2 -8 0 10 -262144
-1 -1 12700 1;
#X msg 108 576 disconnect;
#X obj 59 603 netsend -u -b;
#X obj 60 502 list prepend send;
#X obj 60 527 list trim;
#X obj 185 522 loadbang;
#X msg 68 552 connect localhost 9000;
#X obj 295 373 oscformat /simple-osc/frequency;
#X obj 295 347 nbx 5 14 -1e+37 1e+37 0 0 empty empty empty 0 -8 0 10
-262144 -1 -1 9 256;
#X obj 255 184 oscformat /simple-osc/state;
#X obj 236 123 oscformat /simple-file-playback/state;
#X obj 209 57 oscformat /simple-file-playback/volume;
#X floatatom 258 226 5 0 0 0 - - -, f 5;
#X floatatom 308 286 5 0 0 0 - - -, f 5;
#X obj 308 310 oscformat /simple-file-playback/mod;
#X obj 256 250 oscformat /simple-file-playback/rate;
#X obj 346 412 hsl 128 15 0 10000 0 0 empty empty empty -2 -8 0 10
-262144 -1 -1 11400 1;
#X obj 343 437 oscformat /simple-file-playback/fm;
#X connect 1 0 12 0;
#X connect 2 0 13 0;
#X connect 3 0 14 0;
#X connect 4 0 5 0;
#X connect 5 0 0 0;
#X connect 6 0 7 0;
#X connect 7 0 5 0;
#X connect 8 0 9 0;
#X connect 9 0 5 0;
#X connect 10 0 6 0;
#X connect 11 0 10 0;
#X connect 12 0 6 0;
#X connect 13 0 6 0;
#X connect 14 0 6 0;
#X connect 15 0 18 0;
#X connect 16 0 17 0;
#X connect 17 0 6 0;
#X connect 18 0 6 0;
#X connect 19 0 20 0;
#X connect 20 0 6 0;
