#N canvas 554 254 929 672 10;
#X obj 109 81 soundfiler;
#X floatatom 109 107 20 0 0 0 - - -, f 20;
#X obj 156 235 samplerate~;
#X obj 188 80 table SAMPLE 100;
#X obj 84 544 tabread~ SAMPLE;
#X obj 93 259 /;
#X obj 93 282 * 1000;
#X obj 84 378 metro;
#X obj 84 520 line~;
#X obj 84 350 trigger bang float;
#X obj 84 404 trigger bang bang;
#X msg 183 430 0;
#X obj 63 456 pack float float;
#X obj 84 430 float;
#X obj 109 27 loadbang;
#X obj 109 133 print LOADED;
#X obj 321 620 outlet~;
#X obj 84 568 *~ 0.8;
#X msg 109 53 read -resize assets/sounds/car.wav SAMPLE;
#X obj 86 211 trigger float bang float;
#N canvas 142 304 390 420 arpeggio 0;
#X obj 41 26 inlet;
#X obj 41 304 outlet;
#X obj 41 275 +;
#X obj 56 250 r offset;
#X obj 41 171 +, f 8;
#X obj 41 213 +, f 15;
#N canvas 65 84 450 300 arp3 0;
#X obj 146 41 inlet;
#X obj 145 212 outlet;
#X obj 154 155 *;
#X obj 154 121 % 8;
#X obj 205 94 + 1;
#X obj 205 69 r length3;
#X obj 190 126 r scale3;
#X obj 59 150 s position3, f 8;
#X connect 0 0 3 0;
#X connect 2 0 1 0;
#X connect 3 0 7 0;
#X connect 3 0 2 0;
#X connect 4 0 3 1;
#X connect 5 0 4 0;
#X connect 6 0 2 1;
#X restore 131 173 pd arp3;
#N canvas 65 85 450 300 arp2 0;
#X obj 160 28 inlet;
#X obj 170 262 outlet;
#X obj 317 251 outlet;
#X obj 215 221 *;
#X obj 188 142 % 8;
#X obj 309 86 + 1;
#X obj 309 64 r length2;
#X obj 251 192 r scale2;
#X obj 288 153 /;
#X obj 170 103 t f f;
#X obj 134 182 s position2, f 8;
#X connect 0 0 9 0;
#X connect 3 0 1 0;
#X connect 4 0 3 0;
#X connect 4 0 10 0;
#X connect 5 0 4 1;
#X connect 5 0 8 1;
#X connect 6 0 5 0;
#X connect 7 0 3 1;
#X connect 8 0 2 0;
#X connect 9 0 4 0;
#X connect 9 1 8 0;
#X restore 86 135 pd arp2;
#N canvas 730 257 462 545 arp1 0;
#X obj 252 20 inlet;
#X obj 99 426 outlet;
#X obj 310 424 outlet;
#X obj 99 298 *;
#X obj 114 275 r scale1;
#X obj 60 219 s position1;
#X obj 177 311 moses;
#X obj 99 377 spigot 1;
#X msg 177 333 1;
#X msg 204 345 0;
#X obj 204 268 r limit1;
#X obj 204 290 + 1;
#X obj 155 176 f;
#N canvas 279 218 679 522 wrapper 0;
#X obj 56 32 inlet;
#X obj 56 110 %;
#X obj 337 7 r length1;
#X obj 198 59 + 1;
#X obj 184 461 outlet;
#X obj 183 195 abs;
#X obj 313 95 * 2;
#X obj 322 172 -;
#X obj 322 198 abs;
#X obj 298 132 %;
#X obj 79 244 r mode;
#X obj 79 266 select 1;
#X msg 124 297 0;
#X msg 79 296 1;
#X obj 56 332 spigot 0;
#X obj 207 246 r mode;
#X msg 252 299 0;
#X msg 207 298 1;
#X obj 184 334 spigot 0;
#X obj 350 246 r mode;
#X msg 395 299 0;
#X msg 350 298 1;
#X obj 327 334 spigot 0;
#X obj 207 268 select 2;
#X obj 350 268 select 3;
#X obj 183 169 -;
#X obj 456 457 outlet;
#X obj 56 59 t f f;
#X obj 466 266 /;
#X obj 436 106 + 1;
#X obj 537 253 r mode;
#X msg 582 306 0;
#X msg 537 305 1;
#X obj 514 341 spigot 0;
#X obj 537 275 select 3;
#X msg 619 367 0;
#X msg 574 366 1;
#X obj 507 394 spigot 0;
#X obj 496 103 * 2;
#X obj 485 178 /;
#X connect 0 0 27 0;
#X connect 1 0 14 0;
#X connect 1 0 25 0;
#X connect 2 0 3 0;
#X connect 2 0 6 0;
#X connect 2 0 7 1;
#X connect 2 0 25 1;
#X connect 2 0 29 0;
#X connect 2 0 38 0;
#X connect 3 0 1 1;
#X connect 5 0 18 0;
#X connect 6 0 9 1;
#X connect 7 0 8 0;
#X connect 8 0 22 0;
#X connect 9 0 7 0;
#X connect 10 0 11 0;
#X connect 11 0 13 0;
#X connect 11 1 12 0;
#X connect 12 0 14 1;
#X connect 13 0 14 1;
#X connect 14 0 4 0;
#X connect 15 0 23 0;
#X connect 16 0 18 1;
#X connect 17 0 18 1;
#X connect 18 0 4 0;
#X connect 19 0 24 0;
#X connect 20 0 22 1;
#X connect 21 0 22 1;
#X connect 22 0 4 0;
#X connect 23 0 17 0;
#X connect 23 1 16 0;
#X connect 24 0 21 0;
#X connect 24 1 20 0;
#X connect 25 0 5 0;
#X connect 27 0 1 0;
#X connect 27 0 9 0;
#X connect 27 1 28 0;
#X connect 27 1 39 0;
#X connect 28 0 37 0;
#X connect 29 0 28 1;
#X connect 30 0 34 0;
#X connect 31 0 33 1;
#X connect 32 0 33 1;
#X connect 33 0 26 0;
#X connect 34 0 32 0;
#X connect 34 0 35 0;
#X connect 34 1 31 0;
#X connect 34 1 36 0;
#X connect 35 0 37 1;
#X connect 36 0 37 1;
#X connect 37 0 26 0;
#X connect 38 0 39 1;
#X connect 39 0 33 0;
#X restore 252 89 pd wrapper;
#X connect 0 0 13 0;
#X connect 3 0 7 0;
#X connect 4 0 3 1;
#X connect 6 0 8 0;
#X connect 6 1 9 0;
#X connect 7 0 1 0;
#X connect 8 0 7 1;
#X connect 9 0 7 1;
#X connect 10 0 11 0;
#X connect 11 0 6 1;
#X connect 12 0 5 0;
#X connect 12 0 3 0;
#X connect 12 0 6 0;
#X connect 13 0 12 0;
#X connect 13 1 2 0;
#X restore 41 98 pd arp1;
#N canvas 359 167 651 521 modulus 0;
#X obj 32 10 inlet;
#X obj 116 463 outlet;
#X obj 500 389 mod;
#X obj 368 7 r modulus;
#X msg 382 86 4;
#X msg 417 88 8;
#X msg 451 87 16;
#X msg 489 89 32;
#X obj 368 29 select 0 1 2 3 4 5 6 7;
#X obj 409 163 i;
#X obj 35 373 spigot 1;
#X obj 333 344 spigot 0;
#X obj 549 205 t b;
#X msg 93 334 1;
#X msg 428 314 0;
#X msg 390 313 1;
#X msg 59 335 0;
#X obj 409 185 t b f;
#X msg 371 126 3;
#X msg 403 129 6;
#X msg 435 127 12;
#X msg 468 129 24;
#X connect 0 0 10 0;
#X connect 0 0 11 0;
#X connect 2 0 1 0;
#X connect 3 0 8 0;
#X connect 4 0 9 0;
#X connect 5 0 9 0;
#X connect 6 0 9 0;
#X connect 7 0 9 0;
#X connect 8 0 18 0;
#X connect 8 1 4 0;
#X connect 8 2 19 0;
#X connect 8 3 5 0;
#X connect 8 4 20 0;
#X connect 8 5 6 0;
#X connect 8 6 21 0;
#X connect 8 7 7 0;
#X connect 8 8 12 0;
#X connect 9 0 17 0;
#X connect 10 0 1 0;
#X connect 11 0 2 0;
#X connect 12 0 13 0;
#X connect 12 0 14 0;
#X connect 13 0 10 1;
#X connect 14 0 11 1;
#X connect 15 0 11 1;
#X connect 16 0 10 1;
#X connect 17 0 16 0;
#X connect 17 0 15 0;
#X connect 17 1 2 1;
#X connect 18 0 9 0;
#X connect 19 0 9 0;
#X connect 20 0 9 0;
#X connect 21 0 9 0;
#X restore 41 62 pd modulus;
#X obj 227 109 print;
#X connect 0 0 9 0;
#X connect 2 0 1 0;
#X connect 3 0 2 1;
#X connect 4 0 5 0;
#X connect 5 0 2 0;
#X connect 6 0 5 1;
#X connect 7 0 4 1;
#X connect 7 1 6 0;
#X connect 8 0 4 0;
#X connect 8 0 10 0;
#X connect 8 1 7 0;
#X connect 9 0 8 0;
#X restore 595 127 pd arpeggio;
#N canvas 1108 390 659 511 synth 0;
#X obj 80 8 inlet;
#X obj 79 466 outlet~;
#X obj 266 152 mtof;
#X obj 80 30 t b f;
#X obj 172 266 osc~;
#X obj 75 402 *~;
#X obj 172 310 clip~ -1 1;
#X obj 172 218 *~;
#X obj 172 240 +~;
#X obj 290 89 mtof;
#X obj 290 45 r fm;
#X obj 191 112 osc~ 440;
#X obj 215 71 + 12;
#X obj 215 93 mtof;
#X obj 237 206 clip~ -1 1;
#X obj 237 184 *~ 1;
#X obj 172 288 *~ 1;
#X msg 160 18 0;
#X obj 243 56 * 12;
#X obj 258 30 - 2;
#X obj 172 372 lop~ 1000;
#X obj 264 390 osc~;
#X obj 265 280 mtof;
#X obj 178 409 *~;
#X obj 265 258 + 0;
#X obj 341 179 r am;
#X obj 341 201 - 3;
#X obj 341 223 * 12;
#X obj 81 184 line~;
#X msg 80 107 100;
#X obj 259 6 inlet;
#X connect 0 0 3 0;
#X connect 2 0 8 1;
#X connect 3 0 29 0;
#X connect 3 1 2 0;
#X connect 3 1 12 0;
#X connect 3 1 24 0;
#X connect 4 0 16 0;
#X connect 5 0 1 0;
#X connect 6 0 20 0;
#X connect 7 0 8 0;
#X connect 8 0 4 0;
#X connect 9 0 7 1;
#X connect 10 0 9 0;
#X connect 11 0 15 0;
#X connect 12 0 13 0;
#X connect 13 0 11 0;
#X connect 14 0 7 0;
#X connect 15 0 14 0;
#X connect 16 0 6 0;
#X connect 17 0 12 1;
#X connect 18 0 12 1;
#X connect 19 0 18 0;
#X connect 20 0 23 0;
#X connect 21 0 23 1;
#X connect 22 0 21 0;
#X connect 23 0 5 1;
#X connect 24 0 22 0;
#X connect 25 0 26 0;
#X connect 26 0 27 0;
#X connect 27 0 24 1;
#X connect 28 0 5 0;
#X connect 29 0 28 0;
#X connect 30 0 19 0;
#X restore 561 220 pd synth;
#X obj 529 19 loadbang;
#X obj 574 81 f 0;
#X obj 610 82 + 1;
#X obj 719 290 loadbang;
#X msg 719 312 \; octavia.r 3 \; note.r 0 \; subdiv.r 4 \; mode.r 3
\; scale1.r 7 \; length1.r 2 \; limit1.r 7 \; scale2.r 1 \; length2.r
1 \; scale3.r 3 \; length3.r 1 \; fm.r 100 \; fmo.r 3 \; am.r 3 \;
delay-scale.r 2 \; feedback.r 0.2 \; master.r 0.5 \; modulus.r 5 \;
;
#X obj 480 154 * 3;
#X obj 476 125 mod 4;
#X obj 474 180 + 40;
#X obj 534 58 metro 130;
#X obj 696 160 r /simple-file-playback/volume;
#X obj 613 190 * 40;
#X obj 753 36 r /simple-file-playback/mod;
#X obj 703 74 r /simple-file-playback/rate;
#X obj 673 211 r /simple-file-playback/fm;
#X obj 561 270 *~ 0.5;
#X connect 0 0 1 0;
#X connect 1 0 15 0;
#X connect 1 0 19 0;
#X connect 2 0 5 1;
#X connect 4 0 17 0;
#X connect 5 0 6 0;
#X connect 6 0 9 0;
#X connect 7 0 10 0;
#X connect 8 0 4 0;
#X connect 9 0 7 0;
#X connect 9 1 7 1;
#X connect 9 1 12 1;
#X connect 10 0 13 0;
#X connect 10 1 11 0;
#X connect 11 0 8 0;
#X connect 12 0 8 0;
#X connect 13 0 12 0;
#X connect 14 0 18 0;
#X connect 18 0 0 0;
#X connect 19 0 5 0;
#X connect 19 1 2 0;
#X connect 19 2 13 1;
#X connect 21 0 36 0;
#X connect 22 0 30 0;
#X connect 23 0 24 0;
#X connect 23 0 20 0;
#X connect 23 0 28 0;
#X connect 24 0 23 1;
#X connect 25 0 26 0;
#X connect 27 0 29 0;
#X connect 28 0 27 0;
#X connect 29 0 21 0;
#X connect 30 0 23 0;
#X connect 31 0 32 0;
#X connect 32 0 29 1;
#X connect 33 0 28 1;
#X connect 34 0 27 1;
#X connect 35 0 21 1;
#X connect 36 0 16 0;
